<svg version="1" xmlns="http://www.w3.org/2000/svg" width="768" height="768" viewBox="0 0 576.000000 576.000000"><path d="M255 1.5c-52.4 6.3-99 25.1-141.9 57.2-15.6 11.7-43 39.1-54.7 54.8C19.4 165.6 0 223.7 0 288c0 29.4 3.5 54.3 11.4 81.6 27 92.7 102.3 168 195 195 44.7 13 93.9 15.1 139.1 5.9 54.2-11 102.9-36.7 142.9-75.5 48.8-47.3 78.2-107 86.1-174.6 1.9-16.7 1.9-48.1 0-64.8-9.6-82.2-52.5-154.8-120-203.1-38.3-27.4-85.4-45.3-134.1-51C304.8-.3 270-.3 255 1.5zM97.7 151.7c15.3 13.7 119.6 118.2 121.2 121.5 1.3 2.6 1.2 3-2.1 7-10.7 12.9-112.6 114.2-126 125.1-4.6 3.8-4.7 3.8-7.7 2.2-4.2-2.1-17.1-14.4-17.1-16.2 0-1.9 9-11.4 59-62.5 38.9-39.6 49-50.6 49-53.1 0-2.1-10.6-13.6-44.8-48.6C80.4 177.3 66 162 66 160.1c0-2.7 16.7-18.1 19.7-18.1.6 0 6 4.4 12 9.7zM511.1 404c2.2 1.2 3.1 4.3 3.2 11.3.2 7-1 12.4-2.9 13.1-.9.3-49.1.9-107.2 1.2-112.4.6-160.7-.1-163.6-2.5-1.3-1.1-1.6-3.4-1.6-12.7V403l54.8-.3c89.3-.6 215.1.2 217.3 1.3z"/></svg>